<svg fill="none" height="24" viewBox="0 0 24 24" width="24" xmlns="http://www.w3.org/2000/svg"><path d="m2.00018 16.9899c-.00076-.1335.02447-.2658.07423-.3894.04977-.1236.12309-.236.21577-.3308l9.71082-10.26962 9.7092 10.26962c.1862.1901.2908.4472.2908.7151 0 .268-.1046.5251-.2908.7152-.093.095-.2036.1705-.3254.222-.1219.0515-.2526.078-.3846.078s-.2627-.0265-.3846-.078-.2325-.127-.3254-.222l-8.2892-8.82924-8.29082 8.82924c-.13927.1424-.31705.2398-.51086.2797-.19382.04-.39496.0207-.57799-.0553s-.33974-.2053-.4503-.3717c-.11056-.1663-.17002-.3622-.17085-.5628z" fill="#0f1111"/></svg>