<?xml version="1.0" encoding="UTF-8"?><svg xmlns="http://www.w3.org/2000/svg" viewBox="0 0 24 24"><g id="a"/><g id="b"/><g id="c"/><g id="d"><g><path d="M17.38,9.2c-.41-.36-1.04-.32-1.41,.09-.36,.42-.32,1.05,.09,1.41l.28,.25h-2.34c-.55,0-1,.45-1,1s.45,1,1,1h2.34l-.28,.25c-.42,.36-.46,1-.09,1.41,.2,.23,.47,.34,.75,.34,.23,0,.47-.08,.66-.25l2.28-2c.22-.19,.34-.46,.34-.75s-.12-.56-.34-.75l-2.28-2Z"/><path d="M6.62,14.7c.19,.17,.42,.25,.66,.25,.28,0,.55-.12,.75-.34,.36-.42,.32-1.05-.09-1.41l-.28-.25h2.34c.55,0,1-.45,1-1s-.45-1-1-1h-2.34l.28-.25c.42-.36,.46-1,.09-1.41-.36-.42-1-.46-1.41-.09l-2.28,2c-.22,.19-.34,.46-.34,.75s.12,.56,.34,.75l2.28,2Z"/><path d="M13,7.61l.25,.28c.2,.23,.47,.34,.75,.34,.23,0,.47-.08,.66-.25,.42-.36,.46-1,.09-1.41l-2-2.28c-.38-.43-1.12-.43-1.5,0l-2,2.28c-.36,.42-.32,1.05,.09,1.41,.41,.36,1.04,.32,1.41-.09l.25-.28v2.34c0,.55,.45,1,1,1s1-.45,1-1v-2.34Z"/><path d="M14.75,17.33c.36-.42,.32-1.05-.09-1.41-.41-.36-1.05-.32-1.41,.09l-.25,.28v-2.34c0-.55-.45-1-1-1s-1,.45-1,1v2.34l-.25-.28c-.36-.42-1-.46-1.41-.09-.42,.36-.46,1-.09,1.41l2,2.28c.19,.22,.46,.34,.75,.34s.56-.12,.75-.34l2-2.28Z"/><path d="M12,1.95C6.49,1.95,2,6.44,2,11.95s4.49,10,10,10,10-4.49,10-10S17.51,1.95,12,1.95Zm0,18c-4.41,0-8-3.59-8-8S7.59,3.95,12,3.95s8,3.59,8,8-3.59,8-8,8Z"/></g></g></svg>