<?xml version="1.0" encoding="UTF-8"?><svg xmlns="http://www.w3.org/2000/svg" viewBox="0 0 24 24"><g id="a"/><g id="b"/><g id="c"/><g id="d"><g><path d="M12.65,13l-.27,.22c-.43,.34-.5,.97-.16,1.4,.2,.25,.49,.38,.78,.38,.22,0,.44-.07,.62-.22l2.52-2c.24-.19,.38-.48,.38-.78s-.14-.59-.38-.78l-2.52-2c-.43-.34-1.06-.27-1.41,.16-.34,.43-.27,1.06,.16,1.4l.27,.22H5c-.55,0-1,.45-1,1s.45,1,1,1h7.65Z"/><path d="M19,2H11c-.55,0-1,.45-1,1s.45,1,1,1h7V20h-7c-.55,0-1,.45-1,1s.45,1,1,1h8c.55,0,1-.45,1-1V3c0-.55-.45-1-1-1Z"/></g></g></svg>