<svg width="24" height="24" viewBox="0 0 24 24" fill="none" xmlns="http://www.w3.org/2000/svg">
<path fill-rule="evenodd" clip-rule="evenodd" d="M8 2C8 1.44772 8.44772 1 9 1L15 1C15.5523 1 16 1.44772 16 2C16 2.55229 15.5523 3 15 3L9 3C8.44772 3 8 2.55228 8 2Z" fill="#0F1111"/>
<path fill-rule="evenodd" clip-rule="evenodd" d="M-8.74228e-08 6C-3.91405e-08 5.44772 0.447715 5 1 5L23 5C23.5523 5 24 5.44772 24 6C24 6.55229 23.5523 7 23 7L1 7C0.447715 7 -1.35705e-07 6.55228 -8.74228e-08 6Z" fill="#0F1111"/>
<path fill-rule="evenodd" clip-rule="evenodd" d="M18.7656 7L5.23461 7L6.79017 21L17.21 21L18.7656 7ZM5.23461 5C4.04259 5 3.11521 6.03613 3.24684 7.22086L4.8024 21.2209C4.91494 22.2337 5.77107 23 6.79017 23H17.21C18.2291 23 19.0852 22.2337 19.1978 21.2209L20.7533 7.22086C20.885 6.03613 19.9576 5 18.7656 5H5.23461Z" fill="#0F1111"/>
</svg>
