<svg width="24" height="24" viewBox="0 0 24 24" fill="none" xmlns="http://www.w3.org/2000/svg">
<path d="M22 9.01015C22.0007 9.14365 21.9755 9.27598 21.9258 9.39957C21.876 9.52316 21.8027 9.63557 21.71 9.73035L11.9996 20L2.29078 9.73035C2.10454 9.5403 2 9.2832 2 9.01522C2 8.74724 2.10454 8.49015 2.29078 8.30009C2.38374 8.20501 2.49434 8.12955 2.61619 8.07805C2.73804 8.02656 2.86875 8.00004 3.00075 8.00004C3.13276 8.00004 3.26346 8.02656 3.38531 8.07805C3.50717 8.12955 3.61776 8.20501 3.71072 8.30009L11.9996 17.1293L20.2901 8.30009C20.4293 8.15765 20.6071 8.0603 20.8009 8.02035C20.9947 7.9804 21.1958 7.99964 21.3789 8.07564C21.5619 8.15164 21.7186 8.28099 21.8291 8.44733C21.9397 8.61367 21.9992 8.80953 22 9.01015Z" fill="#0F1111"/>
</svg>
